<svg width="130" height="32" viewBox="0 0 130 32" fill="none" xmlns="http://www.w3.org/2000/svg">
<path d="M21.6912 11.5401C21.6912 13.1889 21.3128 14.7026 20.556 16.0811C19.7991 17.4326 18.6369 18.5273 17.0692 19.3652C15.5014 20.2031 13.5553 20.6221 11.2308 20.6221H6.93308V30.8392H0V2.37711H11.2308C13.5013 2.37711 15.4204 2.76904 16.9881 3.55289C18.5558 4.33675 19.7316 5.41793 20.5154 6.79644C21.2993 8.17495 21.6912 9.75618 21.6912 11.5401ZM10.7037 15.108C12.0282 15.108 13.0147 14.7972 13.6634 14.1755C14.3121 13.5538 14.6365 12.6754 14.6365 11.5401C14.6365 10.4049 14.3121 9.52643 13.6634 8.90475C13.0147 8.28307 12.0282 7.97223 10.7037 7.97223H6.93308V15.108H10.7037Z" fill="#F8A698"/>
<path d="M32.2337 0.836426V30.8392H25.3006V0.836426H32.2337Z" fill="#F8A698"/>
<path d="M59.5979 8.21549V30.8392H52.6649V27.7579C51.9621 28.758 51.0025 29.5688 49.7862 30.1905C48.5969 30.7852 47.2725 31.0825 45.8129 31.0825C44.083 31.0825 42.5558 30.7041 41.2314 29.9473C39.9069 29.1634 38.8798 28.0417 38.15 26.5821C37.4202 25.1225 37.0553 23.4061 37.0553 21.4329V8.21549H43.9478V20.5004C43.9478 22.0141 44.3398 23.1899 45.1236 24.0278C45.9075 24.8657 46.9616 25.2847 48.2861 25.2847C49.6376 25.2847 50.7052 24.8657 51.4891 24.0278C52.2729 23.1899 52.6649 22.0141 52.6649 20.5004V8.21549H59.5979Z" fill="#F8A698"/>
<path d="M93.4455 7.97223C96.2566 7.97223 98.4865 8.82366 100.135 10.5265C101.811 12.2294 102.649 14.5945 102.649 17.6218V30.8392H95.7565V18.5543C95.7565 17.0947 95.3646 15.973 94.5807 15.1891C93.8239 14.3782 92.7697 13.9728 91.4183 13.9728C90.0668 13.9728 88.9991 14.3782 88.2153 15.1891C87.4584 15.973 87.08 17.0947 87.08 18.5543V30.8392H80.1875V18.5543C80.1875 17.0947 79.7956 15.973 79.0117 15.1891C78.2549 14.3782 77.2007 13.9728 75.8493 13.9728C74.4978 13.9728 73.4301 14.3782 72.6462 15.1891C71.8894 15.973 71.511 17.0947 71.511 18.5543V30.8392H64.5779V8.21549H71.511V11.0536C72.2138 10.1076 73.1328 9.36425 74.268 8.82366C75.4033 8.25604 76.6872 7.97223 78.1197 7.97223C79.8226 7.97223 81.3362 8.33713 82.6607 9.06692C84.0122 9.79672 85.0663 10.8374 85.8232 12.1888C86.607 10.9455 87.6747 9.93187 89.0262 9.14801C90.3776 8.36416 91.8507 7.97223 93.4455 7.97223Z" fill="#F8A698"/>
<path d="M106.119 19.4868C106.119 17.1623 106.552 15.1215 107.417 13.3646C108.309 11.6077 109.512 10.2562 111.025 9.31019C112.539 8.36415 114.228 7.89114 116.093 7.89114C117.688 7.89114 119.08 8.21549 120.269 8.8642C121.486 9.51291 122.418 10.3643 123.067 11.4185V8.21549H130V30.8392H123.067V27.6362C122.391 28.6904 121.445 29.5418 120.229 30.1905C119.04 30.8392 117.647 31.1636 116.053 31.1636C114.215 31.1636 112.539 30.6906 111.025 29.7445C109.512 28.7715 108.309 27.4065 107.417 25.6496C106.552 23.8656 106.119 21.8114 106.119 19.4868ZM123.067 19.5274C123.067 17.7975 122.58 16.4325 121.607 15.4324C120.661 14.4323 119.499 13.9322 118.121 13.9322C116.742 13.9322 115.566 14.4323 114.593 15.4324C113.647 16.4054 113.174 17.7569 113.174 19.4868C113.174 21.2167 113.647 22.5952 114.593 23.6223C115.566 24.6224 116.742 25.1225 118.121 25.1225C119.499 25.1225 120.661 24.6224 121.607 23.6223C122.58 22.6222 123.067 21.2573 123.067 19.5274Z" fill="#F8A698"/>
</svg>
