<svg width="47" height="28" viewBox="0 0 47 28" fill="none" xmlns="http://www.w3.org/2000/svg">
<path d="M0.83777 0C0.83777 0 1.72986 3.60667 8.2938 2.35016C8.2938 2.35016 1.0583 4.85378 0.83777 3.06961C0.617238 1.28544 0.597889 0.470181 0.83777 0.000187744V0Z" fill="url(#paint0_radial_2206_4528)"/>
<path d="M7.88404 12.0908C11.0639 9.35708 14.8336 4.23486 9.90358 5.59525C6.74512 6.46686 12.4164 3.04053 12.4164 3.04053L14.6035 4.76703V9.08357L9.36652 11.9612C9.36652 11.9612 7.60208 12.3331 7.88404 12.0906V12.0908Z" fill="url(#paint1_radial_2206_4528)"/>
<path d="M2.53597 17.2184C2.53597 17.2184 3.97488 13.2664 8.38722 11.8467C12.7996 10.4271 15.7253 2.43668 11.6678 4.71019C2.22039 10.0034 -1.91469 3.78937 0.838209 0.000488281C0.838209 0.000488281 0.46815 3.56883 4.06805 3.33853C7.66796 3.10823 12.8668 -0.0763411 15.6678 1.91897C18.4688 3.9141 17.7972 11.3577 11.7255 13.6311C8.13701 14.9745 5.07041 14.569 2.53616 17.2186L2.53597 17.2184Z" fill="url(#paint2_radial_2206_4528)"/>
<path d="M16.3622 9.14946C17.2011 6.55097 16.7045 3.85687 15.1822 2.77224C12.3812 0.777114 7.18231 3.96169 3.5824 4.19199C-0.0175001 4.4221 0.352559 0.853944 0.352559 0.853944C0.349929 0.857701 0.347111 0.861457 0.344481 0.865214C0.376415 0.790827 0.410791 0.717003 0.447421 0.643555C0.418681 1.17948 0.411542 4.10727 3.68309 3.89819C7.28299 3.66789 12.4819 0.483321 15.2828 2.47845C16.8626 3.60403 17.3377 6.46287 16.3622 9.14946Z" fill="url(#paint3_radial_2206_4528)"/>
<path d="M16.8501 8.28969C16.626 8.98529 16.3062 9.67432 15.8849 10.3237C15.9647 10.1627 16.0388 10.0002 16.1073 9.83662C16.2029 9.60913 16.2876 9.37958 16.362 9.14928C17.3375 6.46269 16.8625 3.60385 15.2827 2.47827C12.4817 0.483143 7.28282 3.66772 3.68292 3.89802C0.41137 4.10709 0.418508 1.1793 0.447249 0.643377C0.55714 0.423032 0.687506 0.207759 0.838535 0C0.838535 0 0.468476 3.56835 4.06838 3.33804C7.66828 3.10793 12.8671 -0.0768294 15.6681 1.91848C17.1893 3.00217 17.6864 5.6929 16.8501 8.28969Z" fill="url(#paint4_radial_2206_4528)"/>
<path d="M10.1426 8.89313L9.67996 9.77695L8.3254 9.06801L7.0625 8.40717L7.52517 7.52335C7.80994 6.97878 8.48244 6.76839 9.02682 7.05335L9.30389 7.19837L9.67264 7.39148C10.217 7.67625 10.4274 8.34875 10.1426 8.89313Z" fill="url(#paint5_radial_2206_4528)"/>
<path d="M9.57297 9.98111L3.15067 22.2532L1.7961 21.5442L0.533203 20.8834L6.95551 8.61133L8.21841 9.27217L9.57297 9.98111Z" fill="url(#paint6_radial_2206_4528)"/>
<path d="M3.04911 22.4489L0.961377 24.0274C0.811287 24.1408 0.625319 24.1277 0.493075 24.0353C0.389195 23.9627 0.318564 23.8416 0.324575 23.6941L0.43146 21.0791L1.69436 21.7399L3.04911 22.4489Z" fill="url(#paint7_radial_2206_4528)"/>
<path d="M0.43146 21.0791L1.69436 21.7399L0.493074 24.0353C0.389195 23.9627 0.318564 23.8416 0.324575 23.6941L0.43146 21.0791Z" fill="url(#paint8_radial_2206_4528)"/>
<path d="M6.95554 8.61033L0.53418 20.8828L1.79713 21.5436L8.21849 9.27114L6.95554 8.61033Z" fill="url(#paint9_radial_2206_4528)"/>
<path d="M9.30389 7.19837L8.3254 9.06801L7.0625 8.40717L7.52517 7.52335C7.80994 6.97878 8.48244 6.76839 9.02682 7.05335L9.30389 7.19837Z" fill="url(#paint10_radial_2206_4528)"/>
<path d="M46.9305 19.4266V24.0749H44.97V23.316C44.4008 23.901 43.5786 24.2647 42.5825 24.2647C40.9224 24.2647 39.8789 23.3002 39.8789 21.9247C39.8789 20.5175 41.0173 19.6479 42.8355 19.6479H44.796V19.3001C44.796 18.4305 44.2901 17.9246 43.3415 17.9246C42.5351 17.9246 41.9659 18.2566 41.2702 18.9997L40.1635 17.6874C41.0647 16.6123 42.2031 16.0747 43.5786 16.0747C45.6182 16.0747 46.9305 17.2605 46.9305 19.4266ZM44.796 21.1499V21.0551H43.1201C42.4244 21.0551 42.0292 21.3239 42.0292 21.8456C42.0292 22.3674 42.4719 22.6994 43.1517 22.6994C44.0846 22.6994 44.796 22.0512 44.796 21.1499Z" fill="#222542"/>
<path d="M39.7589 19.221V24.0749H37.6244V19.5214C37.6244 18.5886 37.0711 18.0036 36.2331 18.0036C35.3951 18.0036 34.7943 18.6044 34.7943 19.474V24.0749H32.6599V19.5214C32.6599 18.5886 32.1065 18.0036 31.2685 18.0036C30.3989 18.0036 29.8298 18.5886 29.8298 19.5214V24.0749H27.6953V16.2486H29.6558V16.9443C30.1776 16.3909 30.9681 16.0747 31.8693 16.0747C32.897 16.0747 33.6718 16.4542 34.1935 17.1973C34.8101 16.5016 35.7272 16.0747 36.8023 16.0747C38.6363 16.0747 39.7589 17.3238 39.7589 19.221Z" fill="#222542"/>
<path d="M19.8682 20.6281V16.2485H22.0026V20.802C22.0026 21.7032 22.6192 22.304 23.4888 22.304C24.311 22.304 24.9434 21.7032 24.9434 20.802V16.2485H27.0778V20.6281C27.0778 22.81 25.5284 24.2646 23.4888 24.2646C21.4018 24.2646 19.8682 22.81 19.8682 20.6281Z" fill="#222542"/>
<path d="M17.1504 24.0745V14.5347H19.2852V24.0745H17.1504Z" fill="#222542"/>
<path d="M16.8725 20.1539C16.8725 22.4939 15.2598 24.2647 13.0779 24.2647C12.1293 24.2647 11.3071 23.9326 10.738 23.316L8.60352 28.0002V23.316V16.2486H10.564V17.2289C11.0858 16.4858 12.0028 16.0747 13.0779 16.0747C15.2598 16.0747 16.8725 17.8139 16.8725 20.1539ZM14.7065 20.1697C14.7065 18.8574 13.8369 18.0036 12.6827 18.0036C11.6076 18.0036 10.7063 18.7467 10.7063 20.1539C10.7063 21.5452 11.5917 22.3199 12.6827 22.3199C13.8211 22.3199 14.7065 21.4503 14.7065 20.1697Z" fill="#222542"/>
<defs>
<radialGradient id="paint0_radial_2206_4528" cx="0" cy="0" r="1" gradientUnits="userSpaceOnUse" gradientTransform="translate(9.43767 1.20739) scale(6.72347 3.27741)">
<stop stop-color="#F6C4C3"/>
<stop offset="0.455" stop-color="#F8A698"/>
<stop offset="1" stop-color="#DB6B7B"/>
</radialGradient>
<radialGradient id="paint1_radial_2206_4528" cx="0" cy="0" r="1" gradientUnits="userSpaceOnUse" gradientTransform="translate(15.6156 6.01163) scale(5.94899 8.06496)">
<stop stop-color="#F6C4C3"/>
<stop offset="0.455" stop-color="#F8A698"/>
<stop offset="1" stop-color="#DB6B7B"/>
</radialGradient>
<radialGradient id="paint2_radial_2206_4528" cx="0" cy="0" r="1" gradientUnits="userSpaceOnUse" gradientTransform="translate(19.8403 5.60228) scale(15.2059)">
<stop stop-color="#F6C4C3"/>
<stop offset="0.455" stop-color="#F8A698"/>
<stop offset="1" stop-color="#DB6B7B"/>
</radialGradient>
<radialGradient id="paint3_radial_2206_4528" cx="0" cy="0" r="1" gradientUnits="userSpaceOnUse" gradientTransform="translate(19.3462 3.4109) scale(14.5653 7.51185)">
<stop stop-color="#F6C4C3"/>
<stop offset="0.455" stop-color="#F8A698"/>
<stop offset="1" stop-color="#DB6B7B"/>
</radialGradient>
<radialGradient id="paint4_radial_2206_4528" cx="0" cy="0" r="1" gradientUnits="userSpaceOnUse" gradientTransform="translate(19.7743 3.35875) scale(14.8162 9.11721)">
<stop stop-color="#F6C4C3"/>
<stop offset="0.455" stop-color="#F8A698"/>
<stop offset="1" stop-color="#DB6B7B"/>
</radialGradient>
<radialGradient id="paint5_radial_2206_4528" cx="0" cy="0" r="1" gradientUnits="userSpaceOnUse" gradientTransform="translate(10.7505 7.85372) scale(2.82651 2.51753)">
<stop stop-color="#F6C4C3"/>
<stop offset="0.455" stop-color="#F8A698"/>
<stop offset="1" stop-color="#DB6B7B"/>
</radialGradient>
<radialGradient id="paint6_radial_2206_4528" cx="0" cy="0" r="1" gradientUnits="userSpaceOnUse" gradientTransform="translate(10.9284 13.0496) scale(7.96703 12.0476)">
<stop stop-color="#F6C4C3"/>
<stop offset="0.455" stop-color="#F8A698"/>
<stop offset="1" stop-color="#DB6B7B"/>
</radialGradient>
<radialGradient id="paint7_radial_2206_4528" cx="0" cy="0" r="1" gradientUnits="userSpaceOnUse" gradientTransform="translate(3.45769 22.0647) scale(2.40153 2.67538)">
<stop stop-color="#F6C4C3"/>
<stop offset="0.455" stop-color="#F8A698"/>
<stop offset="1" stop-color="#DB6B7B"/>
</radialGradient>
<radialGradient id="paint8_radial_2206_4528" cx="0" cy="0" r="1" gradientUnits="userSpaceOnUse" gradientTransform="translate(1.8998 22.0409) scale(1.20755 2.61068)">
<stop stop-color="#F6C4C3"/>
<stop offset="0.455" stop-color="#F8A698"/>
<stop offset="1" stop-color="#DB6B7B"/>
</radialGradient>
<radialGradient id="paint9_radial_2206_4528" cx="0" cy="0" r="1" gradientUnits="userSpaceOnUse" gradientTransform="translate(8.32926 6.98516) rotate(-62.38) scale(12.2072 1.2588)">
<stop stop-color="#F6C4C3"/>
<stop offset="0.455" stop-color="#F8A698"/>
<stop offset="1" stop-color="#DB6B7B"/>
</radialGradient>
<radialGradient id="paint10_radial_2206_4528" cx="0" cy="0" r="1" gradientUnits="userSpaceOnUse" gradientTransform="translate(9.63997 7.62307) scale(1.97541 1.89145)">
<stop stop-color="#F6C4C3"/>
<stop offset="0.455" stop-color="#F8A698"/>
<stop offset="1" stop-color="#DB6B7B"/>
</radialGradient>
</defs>
</svg>
