<svg width="21" height="20" viewBox="0 0 21 20" fill="none" xmlns="http://www.w3.org/2000/svg">
<path fill-rule="evenodd" clip-rule="evenodd" d="M10.3337 2.83333C6.37562 2.83333 3.16699 6.04195 3.16699 10C3.16699 13.958 6.37562 17.1667 10.3337 17.1667C11.4792 17.1667 12.5633 16.8975 13.5249 16.4186C13.6684 16.3471 13.8149 16.3319 13.9382 16.3649L15.4222 16.762C16.4381 17.0338 17.3675 16.1044 17.0957 15.0885L16.6986 13.6045C16.6656 13.4812 16.6808 13.3347 16.7522 13.1912C17.2312 12.2296 17.5003 11.1455 17.5003 10C17.5003 6.04195 14.2917 2.83333 10.3337 2.83333ZM4.16699 10C4.16699 6.59424 6.9279 3.83333 10.3337 3.83333C13.7394 3.83333 16.5003 6.59424 16.5003 10C16.5003 10.9874 16.2686 11.9192 15.8571 12.7454C15.692 13.077 15.6284 13.4735 15.7326 13.863L16.1296 15.347C16.2026 15.6196 15.9532 15.8689 15.6807 15.796L14.1966 15.3989C13.8072 15.2947 13.4107 15.3583 13.0791 15.5235C12.2529 15.935 11.321 16.1667 10.3337 16.1667C6.9279 16.1667 4.16699 13.4058 4.16699 10Z" fill="#637381"/>
</svg>
