<svg width="21" height="21" viewBox="0 0 21 21" fill="none" xmlns="http://www.w3.org/2000/svg">
<path d="M16.0928 15.4118C16.337 15.656 16.337 16.0519 16.0928 16.296C15.9712 16.4177 15.8112 16.4793 15.6512 16.4793C15.4912 16.4793 15.3312 16.4185 15.2095 16.296L10.6512 11.7377L6.09282 16.296C5.97116 16.4177 5.81116 16.4793 5.65116 16.4793C5.49116 16.4793 5.33116 16.4185 5.20949 16.296C4.96533 16.0519 4.96533 15.656 5.20949 15.4118L9.76783 10.8535L5.20949 6.29523C4.96533 6.05106 4.96533 5.6552 5.20949 5.41103C5.45366 5.16686 5.8495 5.16686 6.09366 5.41103L10.652 9.96939L15.2103 5.41103C15.4545 5.16686 15.8503 5.16686 16.0945 5.41103C16.3387 5.6552 16.3387 6.05106 16.0945 6.29523L11.5362 10.8535L16.0928 15.4118Z" fill="#637381"/>
</svg>
