<svg width="21" height="21" viewBox="0 0 21 21" fill="none" xmlns="http://www.w3.org/2000/svg">
<path d="M18.1048 5.2569L16.2481 3.40021C15.8139 2.96688 15.2714 2.72768 14.6248 2.72852C14.0114 2.72935 13.4355 2.9694 13.0039 3.40357L2.70886 13.746C2.59136 13.8635 2.52637 14.0219 2.52637 14.1869V18.3535C2.52637 18.6985 2.80637 18.9785 3.15137 18.9785H7.31803C7.48303 18.9785 7.64224 18.9127 7.75891 18.7968L18.1013 8.50102C18.5355 8.06852 18.7755 7.49273 18.7764 6.88023C18.7772 6.2669 18.5389 5.69023 18.1048 5.2569ZM7.05965 17.7285H3.77637V14.4452L11.2705 6.91685L14.5889 10.2343L7.05965 17.7285ZM17.2198 7.6152L15.4748 9.35266L12.1522 6.03103L13.8897 4.28522C14.0864 4.08772 14.348 3.97935 14.6272 3.97852H14.628C14.9063 3.97852 15.168 4.08682 15.3655 4.28349L17.2222 6.14018C17.4189 6.33768 17.5272 6.59933 17.5272 6.8785C17.5263 7.15684 17.4173 7.41853 17.2198 7.6152Z" fill="#637381"/>
</svg>
