<svg width="22" height="22" viewBox="0 0 22 22" fill="none" xmlns="http://www.w3.org/2000/svg">
<path d="M12.4322 20.1663V13.7225H14.5673L14.9743 11.0561H12.4322V9.32584C12.4322 8.59654 12.7864 7.88484 13.926 7.88484H15.0821V5.61554C15.0821 5.61554 14.0327 5.43514 13.0295 5.43514C10.9362 5.43514 9.56784 6.71114 9.56784 9.02334V11.0561H7.23804V13.7225H9.56674V20.1663C5.18434 19.4744 1.83154 15.6596 1.83154 11.0561C1.83154 5.96314 5.93564 1.83374 10.9989 1.83374C16.0611 1.83374 20.1652 5.96204 20.1652 11.0561C20.1652 15.6596 16.8135 19.4755 12.4311 20.1663H12.4322Z" fill="#05060F"/>
</svg>
