<svg width="20" height="20" viewBox="0 0 20 20" fill="none" xmlns="http://www.w3.org/2000/svg">
<path d="M16.25 5.20833H15.3625C15.5242 4.89417 15.625 4.54333 15.625 4.16667C15.625 2.90333 14.5975 1.875 13.3333 1.875C12.6483 1.875 12.0042 2.17999 11.5617 2.71749C11.5392 2.74582 10.6025 3.99081 10 4.79248C9.39667 3.98998 8.45918 2.74333 8.43252 2.71083C7.99585 2.17916 7.35167 1.875 6.66667 1.875C5.4025 1.875 4.375 2.90333 4.375 4.16667C4.375 4.54333 4.47495 4.89417 4.63745 5.20833H3.75C2.71667 5.20833 1.875 6.04917 1.875 7.08333V10C1.875 10.345 2.155 10.625 2.5 10.625H2.70833V15C2.70833 17.015 3.81833 18.125 5.83333 18.125H14.1667C16.1817 18.125 17.2917 17.015 17.2917 15V10.625H17.5C17.845 10.625 18.125 10.345 18.125 10V7.08333C18.125 6.04917 17.2833 5.20833 16.25 5.20833ZM16.875 7.08333V9.375H10.625V6.45833H13.3333H16.25C16.5942 6.45833 16.875 6.73833 16.875 7.08333ZM12.5324 3.50581C12.7341 3.26081 13.0183 3.125 13.3333 3.125C13.9075 3.125 14.375 3.5925 14.375 4.16667C14.375 4.74083 13.9075 5.20833 13.3333 5.20833H11.2516C11.8141 4.46 12.4933 3.55664 12.5324 3.50581ZM5.625 4.16667C5.625 3.5925 6.0925 3.125 6.66667 3.125C6.98167 3.125 7.26583 3.25998 7.45667 3.49248C7.5025 3.55165 8.18421 4.45833 8.74837 5.20833H6.66667C6.0925 5.20833 5.625 4.74083 5.625 4.16667ZM3.125 7.08333C3.125 6.73833 3.40583 6.45833 3.75 6.45833H6.66667H9.375V9.375H3.125V7.08333ZM3.95833 15V10.625H9.375V16.875H5.83333C4.51917 16.875 3.95833 16.3142 3.95833 15ZM16.0417 15C16.0417 16.3142 15.4808 16.875 14.1667 16.875H10.625V10.625H16.0417V15Z" fill="white"/>
</svg>
