<svg width="20" height="20" viewBox="0 0 20 20" fill="none" xmlns="http://www.w3.org/2000/svg">
<path fill-rule="evenodd" clip-rule="evenodd" d="M5.74973 4.94946C4.64374 5.45502 3.8335 6.65749 3.8335 8.0914C3.8335 9.55633 4.43297 10.6855 5.29235 11.6532C6.00065 12.4507 6.85805 13.1118 7.69425 13.7564C7.89285 13.9095 8.09026 14.0617 8.28419 14.2146C8.63488 14.491 8.94771 14.7337 9.24924 14.9099C9.55092 15.0862 9.79376 15.1667 10.0002 15.1667C10.2066 15.1667 10.4494 15.0862 10.7511 14.9099C11.0526 14.7337 11.3654 14.491 11.7161 14.2146C11.9101 14.0617 12.1075 13.9095 12.3061 13.7564C13.1423 13.1118 13.9997 12.4507 14.708 11.6532C15.5674 10.6855 16.1668 9.55633 16.1668 8.0914C16.1668 6.65749 15.3566 5.45502 14.2506 4.94946C13.1761 4.45832 11.7324 4.58839 10.3604 6.01382C10.2661 6.11175 10.1361 6.16709 10.0002 6.16709C9.86424 6.16709 9.73418 6.11175 9.63992 6.01382C8.26794 4.58839 6.82421 4.45832 5.74973 4.94946ZM10.0002 4.97255C8.45879 3.5935 6.7328 3.40058 5.334 4.03998C3.85664 4.71528 2.8335 6.28336 2.8335 8.0914C2.8335 9.86842 3.57383 11.224 4.54464 12.3172C5.32208 13.1926 6.27365 13.9253 7.11405 14.5724C7.30455 14.7191 7.48935 14.8614 7.66511 14.9999C8.0066 15.2691 8.37319 15.5562 8.74471 15.7733C9.11607 15.9903 9.5399 16.1667 10.0002 16.1667C10.4604 16.1667 10.8843 15.9903 11.2556 15.7733C11.6271 15.5562 11.9937 15.2691 12.3352 14.9999C12.511 14.8614 12.6958 14.7191 12.8863 14.5724C13.7267 13.9253 14.6782 13.1926 15.4557 12.3172C16.4265 11.224 17.1668 9.86842 17.1668 8.0914C17.1668 6.28336 16.1437 4.71528 14.6663 4.03998C13.2675 3.40058 11.5415 3.5935 10.0002 4.97255Z" fill="#637381"/>
</svg>
