<svg width="21" height="20" viewBox="0 0 21 20" fill="none" xmlns="http://www.w3.org/2000/svg">
<path d="M16.3333 2.5H4.66667C3.74619 2.5 3 3.24619 3 4.16667V15.8333C3 16.7538 3.74619 17.5 4.66667 17.5H16.3333C17.2538 17.5 18 16.7538 18 15.8333V4.16667C18 3.24619 17.2538 2.5 16.3333 2.5Z" stroke="#637381" stroke-width="1.5" stroke-linecap="round" stroke-linejoin="round"/>
<path d="M7.5835 8.33301C8.27385 8.33301 8.8335 7.77337 8.8335 7.08301C8.8335 6.39265 8.27385 5.83301 7.5835 5.83301C6.89314 5.83301 6.3335 6.39265 6.3335 7.08301C6.3335 7.77337 6.89314 8.33301 7.5835 8.33301Z" stroke="#637381" stroke-width="1.5" stroke-linecap="round" stroke-linejoin="round"/>
<path d="M17.9998 12.4997L13.8332 8.33301L4.6665 17.4997" stroke="#637381" stroke-width="1.5" stroke-linecap="round" stroke-linejoin="round"/>
</svg>
