<svg width="22" height="22" viewBox="0 0 22 22" fill="none" xmlns="http://www.w3.org/2000/svg">
<path fill-rule="evenodd" clip-rule="evenodd" d="M8.04813 6.04265L9.47355 7.46898L12.3601 4.58332C12.6905 4.24452 13.0849 3.97469 13.5204 3.78948C13.9559 3.60428 14.4239 3.50739 14.8971 3.50442C15.3704 3.50146 15.8395 3.59248 16.2773 3.77221C16.715 3.95195 17.1128 4.21681 17.4474 4.55145C17.7821 4.88608 18.0469 5.28383 18.2267 5.72161C18.4064 6.1594 18.4974 6.62851 18.4944 7.10175C18.4915 7.57498 18.3946 8.04292 18.2094 8.47842C18.0242 8.91392 17.7544 9.30832 17.4156 9.63873L14.5299 12.5244L15.9562 13.9507L18.8419 11.0651C19.8906 10.0164 20.4797 8.59408 20.4797 7.11102C20.4797 5.62797 19.8906 4.20566 18.8419 3.15698C17.7932 2.10831 16.3709 1.51917 14.8878 1.51917C13.4048 1.51917 11.9825 2.10831 10.9338 3.15698L8.04813 6.04265ZM4.58222 12.3612L7.01138 9.93207L5.58505 8.50573L3.15588 10.9349C2.10721 11.9836 1.51807 13.4059 1.51807 14.8889C1.51807 16.372 2.10721 17.7943 3.15588 18.843C4.20456 19.8917 5.62687 20.4808 7.10993 20.4808C8.59298 20.4808 10.0153 19.8917 11.064 18.843L13.4931 16.4138L12.0668 14.9875L9.63763 17.4166C9.30722 17.7554 8.91282 18.0253 8.47732 18.2105C8.04182 18.3957 7.57388 18.4926 7.10065 18.4955C6.62741 18.4985 6.1583 18.4075 5.72051 18.2278C5.28273 18.048 4.88498 17.7832 4.55035 17.4485C4.21571 17.1139 3.95085 16.7161 3.77112 16.2784C3.59138 15.8406 3.50036 15.3715 3.50332 14.8982C3.50629 14.425 3.60318 13.957 3.78839 13.5215C3.97359 13.086 4.24342 12.6916 4.58222 12.3612Z" fill="#05060F"/>
<path fill-rule="evenodd" clip-rule="evenodd" d="M7.04723 13.5282C6.86703 13.719 6.76833 13.9725 6.77208 14.2349C6.77582 14.4973 6.88173 14.7479 7.06731 14.9335C7.25288 15.1191 7.50349 15.225 7.7659 15.2287C8.02831 15.2325 8.28185 15.1338 8.47265 14.9536L14.9544 8.47274C15.1394 8.28287 15.2423 8.02776 15.2406 7.76264C15.239 7.49752 15.1329 7.24372 14.9455 7.05618C14.7581 6.86865 14.5044 6.76247 14.2393 6.76064C13.9741 6.75881 13.719 6.86147 13.529 7.0464L7.04723 13.5272V13.5282Z" fill="#05060F"/>
</svg>
