<svg width="22" height="22" viewBox="0 0 22 22" fill="none" xmlns="http://www.w3.org/2000/svg">
<g clip-path="url(#clip0_1092_22181)">
<path fill-rule="evenodd" clip-rule="evenodd" d="M18.13 20.1667H3.87033C3.60285 20.1667 3.33799 20.114 3.09087 20.0117C2.84375 19.9093 2.61921 19.7593 2.43007 19.5701C2.04809 19.1882 1.8335 18.6701 1.8335 18.1299V3.87021C1.8335 2.74546 2.74558 1.83337 3.87033 1.83337H18.13C19.2547 1.83337 20.1668 2.74546 20.1668 3.87021V18.1299C20.1668 18.6701 19.9522 19.1882 19.5703 19.5701C19.1883 19.9521 18.6702 20.1667 18.13 20.1667ZM14.8997 17.6202H17.6203V12.0313C17.6203 9.66629 16.2792 8.52321 14.4074 8.52321C12.5347 8.52321 11.7454 9.98254 11.7454 9.98254V8.79362H9.12375V17.6211H11.7454V12.9865C11.7454 11.7453 12.3174 11.0065 13.411 11.0065C14.4166 11.0065 14.8997 11.716 14.8997 12.9865V17.6202ZM4.37908 6.00879C4.37908 6.90804 5.10325 7.63771 5.99608 7.63771C6.20915 7.63687 6.41997 7.59407 6.6165 7.51175C6.81303 7.42943 6.99142 7.30921 7.14148 7.15795C7.29155 7.0067 7.41036 6.82736 7.49112 6.63019C7.57188 6.43301 7.61301 6.22186 7.61216 6.00879C7.61301 5.79572 7.57188 5.58457 7.49112 5.3874C7.41036 5.19022 7.29155 5.01089 7.14148 4.85963C6.99142 4.70837 6.81303 4.58815 6.6165 4.50583C6.41997 4.42352 6.20915 4.38071 5.99608 4.37987C5.78293 4.38059 5.57202 4.42331 5.37538 4.50557C5.17875 4.58783 5.00025 4.70803 4.85008 4.8593C4.69992 5.01057 4.58103 5.18995 4.50021 5.38719C4.4194 5.58442 4.37824 5.79564 4.37908 6.00879ZM7.37658 17.6202H4.64216V8.79271H7.37658V17.6202Z" fill="#05060F"/>
</g>
<defs>
<clipPath id="clip0_1092_22181">
<rect width="22" height="22" fill="white"/>
</clipPath>
</defs>
</svg>
