<svg width="20" height="20" viewBox="0 0 20 20" fill="none" xmlns="http://www.w3.org/2000/svg">
<g clip-path="url(#clip0_1113_15828)">
<path d="M10 0C7.34784 0 4.8043 1.05357 2.92894 2.92894C1.05357 4.8043 0 7.34784 0 10C0 12.6521 1.05357 15.1958 2.92894 17.0711C4.8043 18.9464 7.34784 20 10 20C12.6521 20 15.1958 18.9464 17.0711 17.0711C18.9464 15.1958 20 12.6521 20 10C20 7.34784 18.9464 4.8043 17.0711 2.92894C15.1958 1.05357 12.6521 0 10 0Z" fill="url(#paint0_linear_1113_15828)"/>
<path d="M13.0913 5C10.3438 5 10 7.28 10 7.28C10 7.28 9.65755 5 6.91005 5C4.26755 5 3.49755 7.7775 3.82005 9.2625C4.67005 13.1875 10 15.9375 10 15.9375C10 15.9375 15.3313 13.1875 16.1813 9.2625C16.5025 7.7775 15.7313 5 13.0913 5Z" fill="white"/>
</g>
<defs>
<linearGradient id="paint0_linear_1113_15828" x1="10" y1="0" x2="10" y2="20" gradientUnits="userSpaceOnUse">
<stop stop-color="#FF6680"/>
<stop offset="1" stop-color="#E61739"/>
</linearGradient>
<clipPath id="clip0_1113_15828">
<rect width="20" height="20" fill="white"/>
</clipPath>
</defs>
</svg>
