<svg width="20" height="20" viewBox="0 0 20 20" fill="none" xmlns="http://www.w3.org/2000/svg">
<path d="M3.35012 11.25C2.65928 11.25 2.09595 10.6908 2.09595 10C2.09595 9.30917 2.65178 8.75 3.34178 8.75H3.35012C4.04095 8.75 4.60012 9.30917 4.60012 10C4.60012 10.6908 4.04095 11.25 3.35012 11.25ZM10.0168 11.25C9.32595 11.25 8.76261 10.6908 8.76261 10C8.76261 9.30917 9.31844 8.75 10.0084 8.75H10.0168C10.7076 8.75 11.2668 9.30917 11.2668 10C11.2668 10.6908 10.7076 11.25 10.0168 11.25ZM16.6835 11.25C15.9926 11.25 15.4293 10.6908 15.4293 10C15.4293 9.30917 15.9851 8.75 16.6751 8.75H16.6835C17.3743 8.75 17.9335 9.30917 17.9335 10C17.9335 10.6908 17.3743 11.25 16.6835 11.25Z" fill="#637381"/>
</svg>
