<svg width="36" height="24" viewBox="0 0 36 24" fill="none" xmlns="http://www.w3.org/2000/svg">
<rect width="36" height="24" rx="4" fill="white"/>
<path d="M14.34 21.3202L14.69 19.1202H13.91H10.23L12.79 2.86018C12.7968 2.8098 12.8217 2.76361 12.86 2.73018C12.9002 2.69911 12.9492 2.6816 13 2.68018H19.21C21.28 2.68018 22.7 3.11018 23.45 3.96018C23.7818 4.3167 24.0131 4.75498 24.12 5.23018C24.2366 5.80768 24.2366 6.40267 24.12 6.98018V7.48018L24.47 7.68018C24.7364 7.81298 24.9769 7.99249 25.18 8.21018C25.4856 8.57917 25.683 9.02573 25.75 9.50018C25.8249 10.1204 25.7979 10.7487 25.67 11.3602C25.5381 12.103 25.2775 12.817 24.9 13.4702C24.5949 13.9938 24.1825 14.4471 23.69 14.8002C23.1942 15.1382 22.6423 15.3854 22.06 15.5302C21.4063 15.6951 20.7342 15.7757 20.06 15.7702H19.57C19.2266 15.7702 18.894 15.8905 18.63 16.1102C18.3646 16.3338 18.1903 16.6468 18.14 16.9902V17.1902L17.53 21.0702V21.2202C17.5372 21.2464 17.5372 21.274 17.53 21.3002H17.47L14.34 21.3202Z" fill="#253D80"/>
<path d="M24.7998 7.08008L24.7398 7.45008C23.9198 11.6501 21.1098 13.1101 17.5298 13.1101H15.7098C15.2719 13.1095 14.8986 13.4276 14.8298 13.8601L13.8998 19.7801L13.6298 21.4601C13.6095 21.5946 13.6485 21.7313 13.7367 21.8349C13.825 21.9384 13.9537 21.9987 14.0898 22.0001H17.3298C17.7139 21.9997 18.0407 21.7197 18.0998 21.3401V21.1801L18.7098 17.3101V17.1001C18.7643 16.722 19.0878 16.4411 19.4698 16.4401H19.9998C23.1298 16.4401 25.5898 15.1701 26.2998 11.4401C26.6839 10.1652 26.4469 8.78395 25.6598 7.71008C25.41 7.45389 25.1193 7.24099 24.7998 7.08008V7.08008Z" fill="#189BD7"/>
<path d="M23.9399 6.73984L23.5599 6.63984L23.1399 6.55984C22.6103 6.48066 22.0753 6.44387 21.5399 6.44984H16.6599C16.5459 6.44672 16.4328 6.47071 16.3299 6.51984C16.098 6.6284 15.9364 6.84642 15.8999 7.09984L14.8999 13.6698V13.8598C14.9688 13.4274 15.342 13.1093 15.7799 13.1098H17.5999C21.1799 13.1098 23.9899 11.6498 24.8099 7.44984L24.8699 7.07984C24.6545 6.96854 24.4304 6.87489 24.1999 6.79984L23.9399 6.73984Z" fill="#242E65"/>
<path d="M15.8999 7.1C15.9364 6.84658 16.098 6.62856 16.3299 6.52C16.4328 6.47086 16.5459 6.44687 16.6599 6.45H21.5399C22.0753 6.44403 22.6103 6.48081 23.1399 6.56L23.5599 6.64L23.9399 6.74L24.1299 6.8C24.3604 6.87505 24.5845 6.96869 24.7999 7.08C25.1249 5.83063 24.827 4.50118 23.9999 3.51C22.9999 2.45 21.3599 2 19.2199 2H12.9999C12.562 1.99947 12.1888 2.31756 12.1199 2.75L9.52989 19.16C9.5067 19.3148 9.55179 19.472 9.65346 19.5909C9.75514 19.7098 9.90342 19.7788 10.0599 19.78H13.8999L14.8999 13.67L15.8999 7.1Z" fill="#253D80"/>
</svg>
