<svg width="36" height="24" viewBox="0 0 36 24" fill="none" xmlns="http://www.w3.org/2000/svg">
<path d="M23.2799 11.6399V11.5692C23.2799 10.8262 23.2091 10.1186 23.0322 9.37564V9.19874C21.9001 3.89177 17.2299 0.0707595 11.7815 0H11.6399C5.20083 0 0 5.20083 0 11.6399C0 18.0791 5.20083 23.2799 11.6399 23.2799C12.8075 23.2799 13.9396 23.103 15.0364 22.7846L15.4256 22.6784L16.1686 22.3954L17.0884 22.7492L20.0957 23.9167C20.591 24.129 20.7325 23.9167 20.4141 23.4922L15.6025 16.9823C15.2487 16.5224 14.6472 16.3808 14.1519 16.6285C13.3736 17.0177 12.5244 17.2299 11.6753 17.2653C8.5619 17.2653 6.01456 14.7534 5.97918 11.6399C5.9438 8.52652 8.49114 5.97918 11.6046 5.9438C14.2934 5.9438 16.6285 7.81893 17.1592 10.437V10.6139C17.2299 10.9323 17.2299 11.2508 17.2653 11.5692V11.6753C17.2653 12.0291 17.2299 12.3475 17.1592 12.7013L19.0697 13.0551C19.1405 12.5952 19.2112 12.1353 19.2112 11.6753V11.6046H21.4048V11.6753C21.4048 12.2768 21.3694 12.8782 21.2632 13.4797V13.5505H21.1925L19.2112 13.1613C19.1051 13.6212 18.9636 14.0811 18.7867 14.5411L18.7513 14.6118L18.6805 14.5765L16.9115 13.8335C16.77 14.1519 16.6285 14.4349 16.4162 14.718L16.3808 14.7887C16.2039 15.0718 15.9563 15.3194 15.744 15.5671L17.1238 16.9115C17.4422 16.5931 17.7606 16.2039 18.0083 15.8148L18.0437 15.744L18.1144 15.7794L19.8127 16.9115C20.1311 16.4162 20.4141 15.8855 20.6618 15.3194L20.6972 15.2487L20.7679 15.2841L22.5015 15.9917C22.7846 15.3194 22.9968 14.6118 23.1384 13.9042V13.8335C23.2091 13.0905 23.2799 12.3829 23.2799 11.6399Z" fill="black"/>
</svg>
