<svg width="20" height="20" viewBox="0 0 20 20" fill="none" xmlns="http://www.w3.org/2000/svg">
<path d="M10.369 3.66262C10.2743 3.55901 10.1404 3.5 10 3.5C9.85962 3.5 9.72571 3.55901 9.63099 3.66262L6.96432 6.57928C6.77799 6.78308 6.79215 7.09935 6.99595 7.28568C7.19975 7.47201 7.51602 7.45785 7.70235 7.25405L9.5 5.28787V12.6667C9.5 12.9428 9.72386 13.1667 10 13.1667C10.2761 13.1667 10.5 12.9428 10.5 12.6667V5.28787L12.2977 7.25405C12.484 7.45785 12.8003 7.47201 13.0041 7.28568C13.2079 7.09935 13.222 6.78308 13.0357 6.57928L10.369 3.66262Z" fill="#637381"/>
<path d="M4.5 12C4.5 11.7239 4.27614 11.5 4 11.5C3.72386 11.5 3.5 11.7239 3.5 12V12.0366C3.49999 12.9483 3.49998 13.6832 3.57768 14.2612C3.65836 14.8612 3.83096 15.3665 4.23223 15.7678C4.63351 16.169 5.13876 16.3416 5.73883 16.4223C6.31681 16.5 7.05169 16.5 7.96342 16.5H12.0366C12.9483 16.5 13.6832 16.5 14.2612 16.4223C14.8612 16.3416 15.3665 16.169 15.7678 15.7678C16.169 15.3665 16.3416 14.8612 16.4223 14.2612C16.5 13.6832 16.5 12.9483 16.5 12.0366V12C16.5 11.7239 16.2761 11.5 16 11.5C15.7239 11.5 15.5 11.7239 15.5 12C15.5 12.9569 15.4989 13.6244 15.4312 14.1279C15.3655 14.6171 15.2452 14.8762 15.0607 15.0607C14.8762 15.2452 14.6171 15.3655 14.1279 15.4312C13.6244 15.4989 12.9569 15.5 12 15.5H8C7.04306 15.5 6.37565 15.4989 5.87208 15.4312C5.3829 15.3655 5.12385 15.2452 4.93934 15.0607C4.75483 14.8762 4.63453 14.6171 4.56877 14.1279C4.50106 13.6244 4.5 12.9569 4.5 12Z" fill="#637381"/>
</svg>
